<?xml version="1.0" encoding="UTF-8" standalone="no"?>
<svg
   viewBox="0 0 512 512"
   version="1.1"
   id="svg4"
   sodipodi:docname="clapperboard-solid.svg"
   inkscape:version="1.1.2 (0a00cf5339, 2022-02-04)"
   xmlns:inkscape="http://www.inkscape.org/namespaces/inkscape"
   xmlns:sodipodi="http://sodipodi.sourceforge.net/DTD/sodipodi-0.dtd"
   xmlns="http://www.w3.org/2000/svg"
   xmlns:svg="http://www.w3.org/2000/svg">
  <defs
     id="defs8" />
  <sodipodi:namedview
     id="namedview6"
     pagecolor="#505050"
     bordercolor="#ffffff"
     borderopacity="1"
     inkscape:pageshadow="0"
     inkscape:pageopacity="0"
     inkscape:pagecheckerboard="1"
     showgrid="false"
     inkscape:zoom="1.1946238"
     inkscape:cx="192.94778"
     inkscape:cy="231.03508"
     inkscape:window-width="1920"
     inkscape:window-height="1047"
     inkscape:window-x="0"
     inkscape:window-y="0"
     inkscape:window-maximized="1"
     inkscape:current-layer="svg4" />
  <!--! Font Awesome Pro 6.0.0 by @fontawesome - https://fontawesome.com License - https://fontawesome.com/license (Commercial License) Copyright 2022 Fonticons, Inc. -->
  <path
     d="m 37.855577,420.51037 c 0,29.47558 23.88897,53.36455 53.364542,53.36455 H 411.40736 c 29.47557,0 53.36454,-23.88897 53.36454,-53.36455 V 233.73449 H 37.855577 Z"
     id="path2"
     sodipodi:nodetypes="ssssccs"
     style="stroke-width:0.833821" />
  <path
     d="M 297.83824,153.86626 369.99537,22.099562 c -1.48971,0.253035 -3.02154,0.362009 -4.54217,0.806507 L 296.57689,43.039497 224.07993,175.42675 Z M 169.7856,191.29768 242.28258,58.910422 168.49224,80.480279 95.995278,212.86753 Z M 410.88871,30.638891 352.10054,138.00468 446.6194,110.37562 431.64683,59.154559 C 428.10721,47.045577 420.49567,37.351768 410.88871,30.638891 Z M 114.22994,96.341844 58.126884,112.74148 c -28.29163,8.27001 -44.518491,37.902 -36.248484,66.19363 l 14.972569,51.22105 4.851595,-1.41817 z"
     id="path552"
     style="stroke-width:0.833821" />
  <path
     style="fill:none;stroke:#000000;stroke-width:7.33763;stroke-linecap:butt;stroke-linejoin:miter;stroke-miterlimit:4;stroke-dasharray:none;stroke-opacity:1"
     d="m 36.850969,230.15616 59.144309,-17.28863 73.790322,-21.56985 54.29433,-15.87093 73.75831,-21.56049 54.2623,-15.86158 94.51886,-27.62906"
     id="path703"
     sodipodi:nodetypes="ccccccc" />
  <path
     style="fill:none;stroke:#000000;stroke-width:7.33763;stroke-linecap:butt;stroke-linejoin:miter;stroke-miterlimit:4;stroke-dasharray:none;stroke-opacity:1"
     d="M 410.77835,35.142752 C 399.65924,26.421849 385.97138,22.983843 370.2561,25.285686 l -73.30018,21.33101 -54.29431,15.870924 -73.79034,21.569857 -65.3985,19.215903"
     id="path705"
     sodipodi:nodetypes="cccccc" />
</svg>
