<?xml version="1.0" encoding="UTF-8" standalone="no"?>
<svg
   viewBox="0 0 384 512"
   version="1.1"
   id="svg4"
   sodipodi:docname="light-b.svg"
   inkscape:version="1.1.2 (0a00cf5339, 2022-02-04)"
   xmlns:inkscape="http://www.inkscape.org/namespaces/inkscape"
   xmlns:sodipodi="http://sodipodi.sourceforge.net/DTD/sodipodi-0.dtd"
   xmlns="http://www.w3.org/2000/svg"
   xmlns:svg="http://www.w3.org/2000/svg">
  <defs
     id="defs8" />
  <sodipodi:namedview
     id="namedview6"
     pagecolor="#505050"
     bordercolor="#ffffff"
     borderopacity="1"
     inkscape:pageshadow="0"
     inkscape:pageopacity="0"
     inkscape:pagecheckerboard="1"
     showgrid="false"
     inkscape:zoom="0.70214844"
     inkscape:cx="188.70654"
     inkscape:cy="296.23366"
     inkscape:window-width="1920"
     inkscape:window-height="1057"
     inkscape:window-x="1050"
     inkscape:window-y="300"
     inkscape:window-maximized="1"
     inkscape:current-layer="svg4" />
  <!--! Font Awesome Pro 6.0.0 by @fontawesome - https://fontawesome.com License - https://fontawesome.com/license (Commercial License) Copyright 2022 Fonticons, Inc. -->
  <path
     id="path2"
     d="M 191.40039 0.013671875 C 89.440391 0.32617188 16 82.969609 16 175.09961 C 16 219.47961 32.440547 259.94039 59.560547 290.90039 C 76.090547 309.74039 101.8993 349.12961 111.7793 382.34961 C 111.8106 382.59961 111.8731 382.86711 111.9043 383.13281 L 272.10547 383.13281 C 272.13677 382.86721 272.19927 382.61531 272.23047 382.34961 C 282.10547 349.12961 307.91922 309.74039 324.44922 290.90039 C 351.59922 260.80039 368 220.39961 368 175.09961 C 368 78.609609 288.90039 -0.28322813 191.40039 0.013671875 z M 136.04883 82.488281 L 186.25977 82.488281 C 208.24711 82.488281 224.81881 85.770598 235.97656 92.333984 C 247.2984 98.733286 252.95898 109.97244 252.95898 126.05273 C 252.95898 136.39007 250.08867 145.00493 244.3457 151.89648 C 238.60274 158.62396 230.31592 162.97239 219.48633 164.94141 L 219.48633 166.17188 C 226.87014 167.32047 233.51483 169.4527 239.42188 172.57031 C 245.49301 175.68792 250.25149 180.11836 253.69727 185.86133 C 257.14304 191.60429 258.86719 199.07102 258.86719 208.25977 C 258.86719 224.17598 253.36867 236.4832 242.375 245.17969 C 231.54541 253.87617 216.69591 258.22266 197.82617 258.22266 L 136.04883 258.22266 L 136.04883 82.488281 z M 158.20117 101.44141 L 158.20117 157.31055 L 190.68945 157.31055 C 205.78524 157.31055 216.12229 154.93228 221.70117 150.17383 C 227.28005 145.25129 230.07031 138.03058 230.07031 128.51367 C 230.07031 118.83268 226.62398 111.94196 219.73242 107.83984 C 213.00495 103.57364 202.17585 101.44141 187.24414 101.44141 L 158.20117 101.44141 z M 158.20117 175.77148 L 158.20117 239.51758 L 193.64258 239.51758 C 209.23062 239.51758 220.05973 236.48129 226.13086 230.41016 C 232.20199 224.33902 235.23828 216.38219 235.23828 206.53711 C 235.23828 197.34837 232.03797 189.96364 225.63867 184.38477 C 219.40345 178.6418 208.1643 175.77148 191.91992 175.77148 L 158.20117 175.77148 z M 112 415.09961 L 112.09961 454.30078 C 112.09961 460.59778 113.91677 466.74023 117.38477 471.99023 L 134.52344 497.67969 C 139.77344 505.55469 151.69406 511.96094 161.16406 511.96094 L 222.83398 511.96094 C 232.27198 511.96094 244.19336 505.55869 249.44336 497.67969 L 266.52344 472 C 269.46144 467.562 271.87109 459.63078 271.87109 454.30078 L 272 415.09961 L 112 415.09961 z " />
</svg>
