<?xml version="1.0" encoding="UTF-8" standalone="no"?>
<!-- Created with Inkscape (http://www.inkscape.org/) -->

<svg
   width="210mm"
   height="297mm"
   viewBox="0 0 210 297"
   version="1.1"
   id="svg5"
   inkscape:version="1.1.2 (0a00cf5339, 2022-02-04, custom)"
   sodipodi:docname="obs müsste jz gehen.svg"
   xmlns:inkscape="http://www.inkscape.org/namespaces/inkscape"
   xmlns:sodipodi="http://sodipodi.sourceforge.net/DTD/sodipodi-0.dtd"
   xmlns:xlink="http://www.w3.org/1999/xlink"
   xmlns="http://www.w3.org/2000/svg"
   xmlns:svg="http://www.w3.org/2000/svg">
  <sodipodi:namedview
     id="namedview7"
     pagecolor="#505050"
     bordercolor="#ffffff"
     borderopacity="1"
     inkscape:pageshadow="0"
     inkscape:pageopacity="0"
     inkscape:pagecheckerboard="1"
     inkscape:document-units="mm"
     showgrid="false"
     inkscape:zoom="0.5"
     inkscape:cx="125"
     inkscape:cy="190"
     inkscape:window-width="1920"
     inkscape:window-height="1057"
     inkscape:window-x="1680"
     inkscape:window-y="0"
     inkscape:window-maximized="1"
     inkscape:current-layer="g1138" />
  <defs
     id="defs2">
    <inkscape:path-effect
       effect="skeletal"
       id="path-effect5702"
       is_visible="true"
       lpeversion="1"
       pattern="M 0,4.9921382 C 0,2.2364779 2.2364779,0 4.9921382,0 c 2.7556604,0 4.9921383,2.2364779 4.9921383,4.9921382 0,2.7556604 -2.2364779,4.9921383 -4.9921383,4.9921383 C 2.2364779,9.9842765 0,7.7477986 0,4.9921382 Z"
       copytype="single_stretched"
       prop_scale="1"
       scale_y_rel="false"
       spacing="0"
       normal_offset="0"
       tang_offset="0"
       prop_units="false"
       vertical_pattern="false"
       hide_knot="false"
       fuse_tolerance="0" />
    <inkscape:path-effect
       effect="skeletal"
       id="path-effect5698"
       is_visible="true"
       lpeversion="1"
       pattern="M 0,4.9921382 C 0,2.2364779 2.2364779,0 4.9921382,0 c 2.7556604,0 4.9921383,2.2364779 4.9921383,4.9921382 0,2.7556604 -2.2364779,4.9921383 -4.9921383,4.9921383 C 2.2364779,9.9842765 0,7.7477986 0,4.9921382 Z"
       copytype="single_stretched"
       prop_scale="1"
       scale_y_rel="false"
       spacing="0"
       normal_offset="0"
       tang_offset="0"
       prop_units="false"
       vertical_pattern="false"
       hide_knot="false"
       fuse_tolerance="0" />
    <inkscape:path-effect
       effect="skeletal"
       id="path-effect5694"
       is_visible="true"
       lpeversion="1"
       pattern="M 0,4.9921382 C 0,2.2364779 2.2364779,0 4.9921382,0 c 2.7556604,0 4.9921383,2.2364779 4.9921383,4.9921382 0,2.7556604 -2.2364779,4.9921383 -4.9921383,4.9921383 C 2.2364779,9.9842765 0,7.7477986 0,4.9921382 Z"
       copytype="single_stretched"
       prop_scale="1"
       scale_y_rel="false"
       spacing="0"
       normal_offset="0"
       tang_offset="0"
       prop_units="false"
       vertical_pattern="false"
       hide_knot="false"
       fuse_tolerance="0" />
    <style
       id="style9">.cls-1{fill:url(#radial-gradient);}.cls-2{fill:none;}.cls-3{fill:url(#radial-gradient-2);}.cls-4{fill:url(#radial-gradient-3);}.cls-5{clip-path:url(#clip-path);}.cls-6{fill:url(#radial-gradient-5);}.cls-7{clip-path:url(#clip-path-2);}.cls-8{fill:url(#radial-gradient-6);}.cls-9{fill:url(#radial-gradient-7);}</style>
    <radialGradient
       id="radial-gradient"
       cx="512.06144"
       cy="512.12118"
       r="444.12235"
       gradientUnits="userSpaceOnUse">
      <stop
         offset="0.99"
         stop-opacity="0.5"
         id="stop11" />
      <stop
         offset="1"
         stop-opacity="0"
         id="stop13" />
    </radialGradient>
    <radialGradient
       id="radial-gradient-2"
       cx="514.5"
       cy="516.5"
       r="496.5"
       gradientUnits="userSpaceOnUse">
      <stop
         offset="0.91341"
         id="stop16" />
      <stop
         offset="1"
         stop-opacity="0"
         id="stop18" />
    </radialGradient>
    <radialGradient
       id="radial-gradient-3"
       cx="512.05911"
       cy="512.1212"
       r="486.27268"
       gradientUnits="userSpaceOnUse"
       gradientTransform="translate(582.41105,202.0491)">
      <stop
         offset="0.99"
         stop-color="#fff"
         id="stop21" />
      <stop
         offset="0.99505"
         stop-color="#fdfdfd"
         id="stop23" />
      <stop
         offset="0.99687"
         stop-color="#f6f6f6"
         id="stop25" />
      <stop
         offset="0.99817"
         stop-color="#ebebeb"
         id="stop27" />
      <stop
         offset="0.99921"
         stop-color="#dadada"
         id="stop29" />
      <stop
         offset="1"
         stop-color="#c7c7c7"
         id="stop31" />
    </radialGradient>
    <clipPath
       id="clip-path"
       transform="translate(-18 -20)">
      <path
         id="SVGID"
         class="cls-1"
         d="M67.93793,512.1212c0,245.28622,198.83963,444.12116,444.12116,444.12116S956.185,757.40742,956.185,512.1212C956.185,266.83966,757.34063,68,512.05909,68S67.93793,266.83966,67.93793,512.1212" />
    </clipPath>
    <radialGradient
       id="radial-gradient-5"
       cx="494.0614"
       cy="492.1212"
       r="444.12237"
       xlink:href="#radial-gradient" />
    <clipPath
       id="clip-path-2"
       transform="translate(-18 -20)">
      <path
         class="cls-2"
         d="M71.60309,512.1212c0,243.262,197.19869,440.456,440.456,440.456s440.46067-197.194,440.46067-440.456c0-243.25733-197.20334-440.45606-440.46067-440.45606S71.60309,268.86387,71.60309,512.1212"
         id="path37" />
    </clipPath>
    <radialGradient
       id="radial-gradient-6"
       cx="5.29522"
       cy="1029.31443"
       r="4.65333"
       gradientTransform="matrix(94.65428,0,0,-94.65428,-7.15418,97921.139)"
       gradientUnits="userSpaceOnUse">
      <stop
         offset="0"
         id="stop40" />
      <stop
         offset="1"
         stop-color="#322f32"
         id="stop42" />
    </radialGradient>
    <radialGradient
       id="radial-gradient-7"
       cx="578.89023"
       cy="473.31944"
       r="353.94182"
       gradientTransform="matrix(1,0,0,1.09706,63.752656,59.933097)"
       gradientUnits="userSpaceOnUse">
      <stop
         offset="0"
         stop-color="#c2c0c2"
         id="stop45" />
      <stop
         offset="1"
         stop-color="#ebebeb"
         id="stop47" />
    </radialGradient>
    <style
       id="style1042">.cls-1{fill:url(#radial-gradient);}.cls-2{fill:none;}.cls-3{fill:url(#radial-gradient-2);}.cls-4{fill:url(#radial-gradient-3);}.cls-5{clip-path:url(#clip-path);}.cls-6{fill:url(#radial-gradient-5);}.cls-7{clip-path:url(#clip-path-2);}.cls-8{fill:url(#radial-gradient-6);}.cls-9{fill:url(#radial-gradient-7);}</style>
    <radialGradient
       id="radial-gradient-36"
       cx="512.06144"
       cy="512.12118"
       r="444.12235"
       gradientUnits="userSpaceOnUse">
      <stop
         offset="0.99"
         stop-opacity="0.5"
         id="stop1044" />
      <stop
         offset="1"
         stop-opacity="0"
         id="stop1046" />
    </radialGradient>
    <radialGradient
       id="radial-gradient-2-7"
       cx="514.5"
       cy="516.5"
       r="496.5"
       gradientUnits="userSpaceOnUse"
       gradientTransform="translate(426.25078,236.268)">
      <stop
         offset="0.91341"
         id="stop1049" />
      <stop
         offset="1"
         stop-opacity="0"
         id="stop1051" />
    </radialGradient>
    <radialGradient
       id="radial-gradient-3-5"
       cx="512.05911"
       cy="512.1212"
       r="486.27268"
       gradientUnits="userSpaceOnUse"
       gradientTransform="matrix(0.66246658,0,0,0.66246658,70.300737,192.90751)">
      <stop
         offset="0.99"
         stop-color="#fff"
         id="stop1054" />
      <stop
         offset="0.99505"
         stop-color="#fdfdfd"
         id="stop1056" />
      <stop
         offset="0.99687"
         stop-color="#f6f6f6"
         id="stop1058" />
      <stop
         offset="0.99817"
         stop-color="#ebebeb"
         id="stop1060" />
      <stop
         offset="0.99921"
         stop-color="#dadada"
         id="stop1062" />
      <stop
         offset="1"
         stop-color="#c7c7c7"
         id="stop1064" />
    </radialGradient>
    <clipPath
       id="clip-path-3"
       transform="translate(-18 -20)">
      <path
         id="SVGID-5"
         class="cls-1"
         d="M67.93793,512.1212c0,245.28622,198.83963,444.12116,444.12116,444.12116S956.185,757.40742,956.185,512.1212C956.185,266.83966,757.34063,68,512.05909,68S67.93793,266.83966,67.93793,512.1212"
         style="fill:url(#radial-gradient-36)" />
    </clipPath>
    <radialGradient
       id="radial-gradient-5-6"
       cx="494.0614"
       cy="492.1212"
       r="444.12237"
       xlink:href="#radial-gradient-36" />
    <clipPath
       id="clip-path-2-2"
       transform="translate(-18 -20)">
      <path
         class="cls-2"
         d="M71.60309,512.1212c0,243.262,197.19869,440.456,440.456,440.456s440.46067-197.194,440.46067-440.456c0-243.25733-197.20334-440.45606-440.46067-440.45606S71.60309,268.86387,71.60309,512.1212"
         id="path1070" />
    </clipPath>
    <radialGradient
       id="radial-gradient-6-9"
       cx="5.29522"
       cy="1029.31443"
       r="4.65333"
       gradientTransform="matrix(94.65428,0,0,-94.65428,-7.15418,97921.139)"
       gradientUnits="userSpaceOnUse">
      <stop
         offset="0"
         id="stop1073" />
      <stop
         offset="1"
         stop-color="#322f32"
         id="stop1075" />
    </radialGradient>
    <radialGradient
       id="radial-gradient-7-1"
       cx="578.89023"
       cy="473.31944"
       r="353.94182"
       gradientTransform="matrix(0.66246658,0,0,0.72676557,70.300762,162.47265)"
       gradientUnits="userSpaceOnUse">
      <stop
         offset="0"
         stop-color="#c2c0c2"
         id="stop1078" />
      <stop
         offset="1"
         stop-color="#ebebeb"
         id="stop1080" />
    </radialGradient>
  </defs>
  <g
     inkscape:label="Ebene 1"
     inkscape:groupmode="layer"
     id="layer1">
    <g
       id="g105"
       transform="matrix(0.13668775,0,0,0.13668775,31.726862,27.263278)">
      <g
         id="g1138"
         transform="matrix(1.2094498,0,0,1.2094498,-52.845001,-30.846955)">
        <path
           id="path1089"
           style="fill:url(#radial-gradient-3-5);stroke-width:0.662466"
           class="cls-4"
           transform="matrix(1.6004608,0,0,1.6004608,-148.22191,-139.41023)"
           d="m 409.52344,210.03125 c -177.91342,0 -322.140628,144.22719 -322.140628,322.14063 2e-6,177.91317 144.227238,322.13671 322.140628,322.13671 177.91338,0 322.13867,-144.22358 322.13867,-322.13671 0,-177.9134 -144.22529,-322.14063 -322.13867,-322.14063 z m 0,27.92383 c 162.49081,0 294.21679,131.72598 294.21679,294.2168 0,162.49366 -131.72598,294.21484 -294.21679,294.21484 -162.49081,0 -294.2168,-131.72118 -294.2168,-294.21484 0,-162.49082 131.72598,-294.2168 294.2168,-294.2168 z m 12.00586,215.16601 c 0.006,2e-5 0.0437,0.0196 0.0723,0.043 -0.0377,-0.0218 -0.0759,-0.043 -0.0723,-0.043 z m -3.02149,6.40235 c -0.21851,0.0308 -0.55694,0.0223 0,0 z" />
        <g
           class="cls-7"
           clip-path="url(#clip-path-2)"
           id="g1098" />
        <path
           id="path1100"
           style="fill:url(#radial-gradient-7-1);stroke-width:0.662466"
           class="cls-9"
           transform="matrix(1.6004608,0,0,1.6004608,-148.22191,-139.41023)"
           d="m 271.20508,325.31055 c -25.78115,45.07875 -28.95095,101.26293 -5.42578,150.40234 0.36239,0.75256 0.72946,1.5031 1.10351,2.25 0.1699,0.33923 0.3414,0.67761 0.51367,1.01563 0.0805,0.21346 0.18463,0.41721 0.31055,0.60742 0.2144,0.23771 0.26965,0.19735 0.59766,0.1914 1.70784,-0.031 3.4173,-0.0233 5.125,0.0137 3.15527,0.0681 6.30406,0.24934 9.44922,0.54101 56.1847,8.73991 82.71515,61.09974 104.95507,109.74609 0.91572,13.31521 3.58081,25.00171 1.72461,38.23438 -3.52544,24.95474 -6.46514,48.74837 -22.90625,67.84961 -9.42701,10.94488 -20.56235,20.29282 -32.97461,27.68164 -2.84887,1.6817 -5.76443,3.22332 -8.71484,4.67969 0.41558,0.52384 0.79316,1.18442 1.10547,1.99218 0.31686,0.81952 0.56015,1.66471 0.85937,2.49024 0.10511,0.29 0.26401,0.5611 0.34961,0.85742 0.1481,0.51264 0.2678,1.03243 0.40235,1.54883 0.0572,0.31695 0.10199,0.63671 0.17187,0.95117 0.21358,0.9609 0.30613,1.12087 0.53906,2.00781 0.24612,0.93641 0.45342,1.87931 0.67188,2.82227 0.27218,1.15377 0.57791,2.29915 0.86523,3.44922 0.0299,0.12094 0.0657,0.2412 0.0899,0.36328 0.005,0.0278 0.22773,1.63529 0.28125,1.70898 10e-4,-4e-5 0.004,5e-5 0.006,0 0.0369,0.12688 0.0735,0.25387 0.10937,0.38086 0.0772,0.27302 0.1127,0.4654 0.14063,0.69727 22.10104,-4.8401 42.98679,-14.25602 61.25976,-27.73438 15.56471,-11.47103 28.96428,-25.6199 39.57227,-41.78515 0.45981,-0.70093 0.91436,-1.40528 1.36328,-2.11328 0.17422,-0.27477 0.35353,-0.71631 0.51172,-1 0.41826,-0.71526 0.73405,-4.01713 0.44726,-4.41407 -0.88452,-1.65942 -0.51122,-0.91702 -1.32421,-2.61328 -1.63319,-3.40782 -3.20944,-6.04969 -4.54493,-9.58984 -2.70447,-7.17353 -3.55615,-13.70121 -4.96875,-21.23633 -3.02589,-16.19727 -2.01729,-33.5598 1.02539,-49.75391 2.59012,-13.7561 9.86677,-23.63943 16.64844,-35.88476 23.36238,-40.78422 61.15314,-67.52757 107.66797,-71.89649 3.24027,-0.0225 6.47907,0.0713 9.71484,0.28125 3.12066,0.20756 6.23081,0.52085 9.33204,0.93946 3.07031,0.4199 6.12369,0.9486 9.16015,1.58593 2.97244,0.62749 5.92193,1.35409 8.84766,2.17969 2.86593,0.81301 5.70162,1.72276 8.50781,2.72852 2.84449,1.02134 5.65177,2.13842 8.41992,3.35351 2.82171,1.23225 5.5949,2.56797 8.32031,4.00586 2.723,1.43215 5.3948,2.95794 8.01563,4.57618 2.46011,1.52201 4.20732,2.95835 6.55811,4.64476 2.4246,1.73973 4.90473,4.2691 7.21728,6.15406 2.38686,1.94154 4.45496,4.09824 6.69531,6.20703 2.38466,2.24515 4.54455,5.1113 6.75586,7.53125 1.27488,1.38934 2.28747,2.45325 3.48633,3.91016 0.0938,-0.072 0.17199,-0.16538 0.26367,-0.24023 0.0246,-0.0212 0.0478,-0.0418 0.0742,-0.0645 0.004,-0.004 1.11935,-0.80759 1.12305,-0.80859 l 0.002,0.002 c 0.0839,-0.0813 0.15319,-0.16539 0.27149,-0.20508 0.0779,-0.0363 0.14908,-0.081 0.22656,-0.11914 0.034,-0.0157 0.009,0.007 0.0527,-0.0195 0.0163,-0.0113 0.0318,-0.0219 0.0469,-0.0332 0.0847,-0.0612 0.16427,-0.1281 0.25195,-0.18555 0.0442,-0.0287 0.0925,-0.0517 0.13672,-0.0781 0.0268,-0.0155 0.0517,-0.0358 0.0781,-0.0547 0.18951,-0.13176 0.36817,-0.27693 0.56055,-0.4043 0.1801,-0.12325 0.35506,-0.25216 0.51758,-0.39843 0.0756,-0.065 0.15979,-0.12816 0.23047,-0.19922 0.0722,-0.0726 0.13471,-0.1545 0.20312,-0.23047 0.12817,-0.14164 0.26477,-0.27555 0.40235,-0.4082 0.13054,-0.13462 0.24763,-0.2816 0.38672,-0.40821 0.12892,-0.12057 0.26419,-0.23521 0.38476,-0.36523 0.12903,-0.1274 0.25954,-0.25374 0.38086,-0.38867 0.0854,-0.085 0.16956,-0.16308 0.26367,-0.23829 0.0711,-0.0571 0.0611,-0.0412 0.13672,-0.10546 0.0163,-0.014 0.0318,-0.0298 0.0469,-0.0449 0.15326,-0.15296 0.28959,-0.32104 0.43359,-0.48242 0.0382,-0.0385 0.074,-0.0774 0.11328,-0.11523 0.037,-0.0355 0.0794,-0.0675 0.11719,-0.10156 0.0699,-0.0654 0.13383,-0.13553 0.19922,-0.20508 0.0779,-0.0813 0.16187,-0.16144 0.23633,-0.2461 0.11452,-0.13039 0.0731,-0.0887 0.0449,-0.0605 0.016,-0.018 0.0469,-0.0534 0.125,-0.13868 0.0174,-0.0208 0.0377,-0.0358 0.0566,-0.0547 0.16074,-0.1655 0.31215,-0.34139 0.47656,-0.50391 0.0317,-0.0299 0.0598,-0.0595 0.0937,-0.0898 0.0412,-0.0374 0.23533,-0.20362 0.27539,-0.24219 0.0753,-0.0723 0.56746,-0.51834 0.61133,-0.57813 -3.88863,-7.68213 -9.68234,-14.33626 -15.125,-21.18164 -13.62789,-16.98289 -30.52528,-31.05828 -49.69141,-41.39257 -19.65676,-10.59324 -41.30341,-16.97868 -63.5625,-18.75 -1.8845,-0.15078 -3.77114,-0.26836 -5.66015,-0.35352 -44.6343,58.52426 -115.71652,60.57612 -179.18164,38.55664 -11.07837,-6.85416 -23.45807,-12.27773 -32.10938,-22.01758 -22.77235,-25.67235 -34.38774,-53.2349 -32.8125,-87.51562 0.18805,-3.83543 0.84144,-8.70246 1.34375,-12.50977 0.49503,-3.75218 0.92234,-7.18832 1.73828,-10.8789 0.83761,-3.78863 1.40753,-7.3735 2.57813,-11.07618 0.17787,-0.56426 0.27936,-1.1389 0.38476,-1.71289 -0.0757,-0.002 -0.14575,-0.0234 -0.21679,-0.0508 -0.005,-0.002 -0.0531,-0.0202 -0.0527,-0.0215 7.6e-4,-0.002 -0.31831,-0.0274 -0.32031,-0.0274 -0.0364,-0.006 -0.0496,-0.0117 -0.0547,-0.0117 0.006,0.002 0.008,0.005 -0.084,-0.0176 -0.06,-0.0222 -0.11869,-0.0496 -0.17774,-0.0742 -0.0634,-0.0227 -0.12387,-0.0481 -0.18359,-0.0762 -0.0486,-0.0169 -0.0971,-0.0336 -0.14648,-0.0488 -0.0937,-0.0331 -0.18815,-0.0705 -0.28321,-0.0996 -0.0924,-0.0317 -0.18384,-0.0664 -0.27929,-0.0879 -0.10179,-0.0297 -0.20089,-0.066 -0.30079,-0.10156 -0.089,-0.0339 -0.178,-0.0674 -0.26757,-0.0996 -0.0898,-0.0332 -0.19032,-0.0491 -0.2754,-0.0957 -0.0668,-0.0319 -0.13995,-0.0392 -0.20507,-0.0762 -0.0718,-0.0324 -0.14926,-0.0498 -0.22266,-0.0781 -0.0734,-0.0315 -0.1455,-0.0679 -0.22266,-0.0899 -0.019,-0.008 -0.0377,-0.0132 -0.0566,-0.0215 -0.008,-0.003 -0.0135,-0.009 -0.0215,-0.0117 -0.0508,-0.0175 -0.10827,-0.0288 -0.15234,-0.0625 -0.001,-0.01 10e-4,-0.005 -0.0176,-0.0117 -0.0582,-0.0185 -0.1195,-0.0262 -0.17578,-0.0508 -0.0203,-0.009 -0.0405,-0.0159 -0.0606,-0.0254 -0.002,-7.5e-4 0.0102,-0.01 0,-0.01 -0.048,-0.016 -0.10074,-0.0219 -0.14648,-0.0449 -0.0852,-0.0325 -0.17649,-0.0497 -0.26368,-0.0762 -0.092,-0.0292 -0.17992,-0.0686 -0.27539,-0.0859 -0.10462,-0.0276 -0.20652,-0.0624 -0.30664,-0.10351 -0.0931,-0.035 -0.18861,-0.0626 -0.27929,-0.10352 -0.0851,-0.0383 -0.18052,-0.0492 -0.26563,-0.0879 -0.0201,-0.009 -0.0386,-0.0167 -0.0586,-0.0254 -0.011,-0.005 -0.018,-0.0138 -0.0293,-0.0176 -0.0412,-0.014 -0.0846,-0.0206 -0.125,-0.0371 -0.0812,-0.0301 -0.16138,-0.0643 -0.24219,-0.0957 -0.0212,-0.008 -0.17716,-0.0596 -0.17187,-0.0664 0.002,-0.002 0.0129,0.001 0.0117,0 -0.0102,-0.004 -0.0189,-0.009 -0.0293,-0.0117 -0.1022,-0.0311 -0.19973,-0.0707 -0.29297,-0.12304 -0.0765,-0.037 -0.15477,-0.0706 -0.23047,-0.10938 -0.0322,-0.0173 -7e-5,10e-4 -0.0703,-0.0176 -0.0653,-0.0177 -0.13143,-0.0382 -0.19141,-0.0703 -0.022,-0.0155 -0.002,-0.004 -0.0547,-0.0176 -0.0725,-0.0183 -0.14302,-0.0438 -0.2129,-0.0703 -0.0947,-0.0341 -0.19494,-0.0625 -0.28125,-0.11133 0.0137,-0.008 0.003,-0.003 -0.0293,-0.0117 -0.0553,-0.0145 -0.1079,-0.0245 -0.16211,-0.043 -0.0113,-0.004 -0.0223,-0.0109 -0.0332,-0.0156 -0.0176,-0.008 -0.0353,-0.0167 -0.0527,-0.0254 -0.006,-0.003 -0.008,-0.009 -0.0137,-0.0117 -0.0305,-0.0151 -0.0699,-0.0135 -0.0996,-0.0293 -0.0301,-0.014 -0.0619,-0.0282 -0.0918,-0.043 -0.0293,-0.0146 -0.0508,-0.0423 -0.084,-0.0488 -0.0669,-0.0247 -0.12997,-0.0561 -0.19336,-0.0879 -0.0196,-0.0102 -0.0393,-0.0188 -0.0586,-0.0293 -0.002,-8.5e-4 -0.0135,-0.004 -0.0117,-0.006 0.004,-10e-4 0.0147,0.002 0.0117,0 -0.0433,-0.0193 -0.0931,-0.0248 -0.13282,-0.0527 -0.0228,-0.0156 -0.0476,-0.031 -0.0703,-0.0469 -0.004,-0.003 -0.009,-0.008 -0.0117,-0.0117 -8.5e-4,-0.001 -0.005,-0.006 -0.004,-0.006 0.004,-7.8e-4 0.0144,0.004 0.0117,0.002 -0.009,-0.005 -0.0178,-0.007 -0.0273,-0.01 -0.028,-0.0106 -0.0571,-0.02 -0.084,-0.0332 -0.0209,-0.0102 -0.0382,-0.0222 -0.0586,-0.0332 -0.001,-6.7e-4 -0.009,-0.004 -0.008,-0.004 0.004,-5.7e-4 0.0153,0.002 0.0117,0 -0.01,-0.005 -0.0213,-0.006 -0.0312,-0.01 -0.0326,-0.0125 -0.0534,-0.0197 -0.084,-0.0351 -0.0224,-0.0113 -0.0561,-0.029 -0.0566,-0.0332 -0.0636,-0.0197 -0.12316,-0.0444 -0.18359,-0.0723 -0.0468,-0.0212 -0.092,-0.0435 -0.14063,-0.0605 -0.0675,-0.0268 -0.1345,-0.0533 -0.20117,-0.082 -0.0164,-0.008 -0.0345,-0.0155 -0.0508,-0.0234 -0.008,-0.004 -0.0136,-0.0122 -0.0215,-0.0156 -0.0371,-0.0162 -0.0797,-0.019 -0.11524,-0.0391 -0.0282,-0.0166 -0.0556,-0.0341 -0.084,-0.0508 -0.002,-0.002 -0.009,-0.006 -0.0117,-0.008 -0.008,-0.005 -0.0449,-0.0234 -0.0547,-0.0293 l -0.002,-0.002 c -0.001,-3e-4 -0.003,3.4e-4 -0.004,0 -0.0576,-0.0161 -0.10939,-0.0393 -0.16015,-0.0703 -0.0112,-0.006 -0.0947,-0.051 -0.11133,-0.0645 l -0.002,-0.002 c 0.002,-10e-4 0.01,10e-4 0.008,0 -0.011,-0.006 -0.0238,-0.0103 -0.0352,-0.0156 -0.0131,-0.008 -0.0546,-0.0313 -0.0781,-0.0508 -0.003,-0.001 -0.01,-0.0135 -0.01,-0.0117 -0.0437,-0.02 -0.0799,-0.0442 -0.11914,-0.0703 -0.004,-0.005 -0.0101,-0.007 -0.0156,-0.01 -0.0544,-0.025 -0.10707,-0.0527 -0.1543,-0.0899 -0.0338,-0.0113 -0.0681,-0.0218 -0.0977,-0.043 -0.006,-0.004 -0.009,-0.01 -0.0117,-0.0117 -0.002,-4.7e-4 -0.004,-1.7e-4 -0.006,-0.002 -0.0155,-0.004 -0.0315,-0.007 -0.0469,-0.0117 -0.0102,-0.003 -0.0217,-0.008 -0.0312,-0.0117 -0.0186,-0.008 -0.0384,-0.0113 -0.0547,-0.0234 l 0.002,-0.002 c -0.0193,-0.008 -0.0389,-0.0138 -0.0586,-0.0215 -0.002,-7.5e-4 -0.008,-0.005 -0.006,-0.004 -0.005,-0.002 -0.0101,-0.01 -0.0156,-0.0117 -0.0127,-0.005 -0.0247,-0.0119 -0.0371,-0.0176 0.003,8.6e-4 -0.005,-0.003 -0.008,-0.004 h -0.002 c -0.0368,-0.0135 -0.0749,-0.0187 -0.11133,-0.0332 -0.0297,-0.011 -0.062,-0.0178 -0.0937,-0.0254 -0.0266,-0.009 -0.0551,-0.0165 -0.0801,-0.0293 -0.0101,-0.005 -0.0195,-0.0119 -0.0293,-0.0176 -0.016,-0.006 -0.0329,-0.01 -0.0488,-0.0156 0.006,9.7e-4 0.0275,0.004 0.0215,0.002 -0.027,-0.0106 -0.0598,-0.0102 -0.0859,-0.0234 -0.03,-0.0104 -0.0594,-0.0182 -0.0898,-0.0273 0.0146,-10e-4 8.9e-4,10e-4 -0.0254,-0.006 -0.051,-0.0113 -0.10158,-0.0267 -0.14648,-0.0547 0.0421,0.0106 -0.0602,-0.0162 -0.0625,-0.0156 -0.0663,-0.0187 -0.12521,-0.0495 -0.16406,-0.0703 -0.008,-0.005 0.001,-0.004 -0.008,-0.01 -0.0128,-0.002 -0.0236,-0.006 -0.0566,-0.0137 -0.0753,-0.0265 -0.14392,-0.0603 -0.21289,-0.0996 0.006,0.003 -0.0116,-0.01 -0.0176,-0.0117 -0.0447,-0.0196 -0.0908,-0.0381 -0.1289,-0.0703 -0.0174,-0.0125 0.009,0.008 -0.0352,-0.0176 -0.0343,-0.02 -0.0455,-0.0265 -0.0566,-0.0332 -0.002,-9.7e-4 -0.004,-0.007 -0.006,-0.008 -0.004,-0.002 -0.008,-0.01 -0.0117,-0.0117 -0.045,-0.0214 -0.0887,-0.0445 -0.1289,-0.0742 -0.0177,-0.0113 -0.0434,-0.0223 -0.0625,-0.0352 -0.0516,-0.0192 -0.0833,-0.0327 -0.13282,-0.0625 l -0.002,-0.002 h -0.002 l -0.0469,-0.0215 c -0.002,-9.8e-4 0.006,8e-5 0.008,0.002 0.011,0.003 0.0417,0.0148 0.0313,0.0117 -0.11979,-0.0471 -0.0493,-0.005 -0.13086,-0.0703 l -0.002,-0.002 c -0.003,-9.3e-4 -0.004,-0.005 -0.006,-0.006 -0.002,-6.5e-4 -0.01,-9e-5 -0.0117,-0.002 l -0.002,-0.002 h -0.0117 v -0.002 h -0.002 l -0.004,-0.002 h -0.002 l -0.006,-0.002 c -6e-4,-2.7e-4 -0.005,4.8e-4 -0.006,0 l -0.002,-0.002 c -10e-4,-4e-4 -0.003,-0.006 -0.004,-0.006 -8.3e-4,-7.3e-4 -0.005,-0.003 -0.006,-0.004 -0.0131,-0.004 -0.0256,-0.007 -0.043,-0.0156 -0.0137,-0.008 -0.0272,-0.0171 -0.041,-0.0254 -10e-4,-5.2e-4 -0.008,-2e-5 -0.01,-0.002 -0.0162,-0.006 -0.0271,-0.01 -0.0351,-0.0137 l 0.006,-0.004 c -0.0368,-0.0125 -0.0742,-0.0238 -0.11133,-0.0332 -0.0264,-0.009 -0.0536,-0.0179 -0.0801,-0.0274 -0.0366,-0.007 -0.0731,-0.0137 -0.10547,-0.0351 0.0217,0.002 4.5e-4,-9.3e-4 -0.0273,-0.0117 -0.0137,-0.005 -0.0275,-0.0118 -0.041,-0.0176 l -0.002,-0.002 h -0.008 c -0.005,-7.4e-4 -0.009,-8e-5 -0.0137,-0.002 -0.0552,-0.0166 -0.0947,-0.0303 -0.14453,-0.0547 -0.005,-7.5e-4 -0.0109,-0.005 -0.0156,-0.006 -0.0376,-0.0152 -0.0762,-0.029 -0.11328,-0.0449 -0.006,-0.003 -0.017,-0.008 -0.0254,-0.0137 l -0.004,-0.002 c -0.009,-0.003 -0.0159,-0.008 -0.0254,-0.0117 -9.8e-4,-4.7e-4 -0.0108,-0.002 -0.01,-0.004 10e-4,-9.9e-4 0.0131,5.9e-4 0.0117,0 -0.017,-0.006 -0.0365,-0.006 -0.0527,-0.0137 -0.0209,-0.009 -0.0405,-0.0186 -0.0605,-0.0293 -0.0462,-0.014 -0.0791,-0.0319 -0.125,-0.0566 -0.002,-9e-4 -0.003,-0.002 -0.004,-0.004 h -0.002 c -0.0107,-0.005 -0.0124,-0.008 -0.0195,-0.0117 h -0.006 c -0.005,-9.9e-4 -0.009,-0.005 -0.0137,-0.006 -0.0273,-0.01 -0.0548,-0.0187 -0.082,-0.0293 -0.0281,-0.011 -0.0506,-0.0323 -0.0801,-0.041 -0.0282,-0.0117 -0.0576,-0.0204 -0.0859,-0.0312 -0.007,-0.003 -0.0182,-0.009 -0.0254,-0.0117 h -0.002 c -0.0379,-0.0108 -0.0744,-0.0278 -0.10938,-0.0469 -0.005,-0.002 -0.0104,-0.004 -0.0156,-0.006 -0.0218,-0.008 -0.0429,-0.0167 -0.0645,-0.0254 -0.0326,-0.0133 -0.0655,-0.0251 -0.0976,-0.0391 -0.0215,-0.009 -0.0433,-0.0195 -0.0645,-0.0293 -0.0881,-0.0401 -0.0639,-0.0303 -0.13086,-0.0605 -0.0719,-0.0319 -0.0452,-0.0192 -0.10157,-0.043 -0.0493,-0.0209 -0.0978,-0.0422 -0.14648,-0.0645 -0.0102,-0.005 -0.0211,-0.009 -0.0312,-0.0137 -0.0361,-0.0174 -0.0499,-0.043 -0.0488,-0.0645 z M 421.5293,453.12109 c 0.006,2e-5 0.0437,0.0196 0.0723,0.043 -0.0377,-0.0218 -0.0759,-0.043 -0.0723,-0.043 z m -3.02149,6.40235 c -0.21851,0.0308 -0.55694,0.0223 0,0 z m 240.35742,63.63672 c -0.004,0.008 -0.009,0.0155 -0.0137,0.0234 0.006,-0.003 0.015,-0.006 0.0215,-0.01 -0.002,-0.005 -0.005,-0.009 -0.008,-0.0137 z m -7.23437,3.53125 c -8.7e-4,6.8e-4 -0.003,0.003 -0.004,0.004 0.003,-8.2e-4 0.006,-0.003 0.01,-0.004 6.6e-4,-0.004 -5.3e-4,-0.004 -0.006,0 z m 25.48242,52.07617 0.0664,0.20117 -0.043,-0.18945 c -0.008,-0.004 -0.0152,-0.008 -0.0234,-0.0117 z m -382.15625,172.66015 -0.004,0.006 h 0.004 c -2e-4,-0.002 2.1e-4,-0.004 0,-0.006 z"
           sodipodi:nodetypes="ccsccscccccccssscsccccccsccssccscccccccccccccccccccccccccccccccsccccccsccsccscccccsccccccccssccscccccccccccccccccccccccccccccccccccccccccccccsccccccccccccccsccccscccccccccccccccccccccccccccccsccccccccccccccccccccccccscccccccccccccccccccccccccsccccccccccccccccsccccccccccsccccccccccsccccscscccccccsccscccsccccc" />
      </g>
    </g>
  </g>
</svg>
