<?xml version="1.0" encoding="UTF-8" standalone="no"?>
<svg
   viewBox="0 0 512 512"
   version="1.1"
   id="svg4"
   sodipodi:docname="power-off-solid.svg"
   inkscape:version="1.1.2 (0a00cf5339, 2022-02-04)"
   xmlns:inkscape="http://www.inkscape.org/namespaces/inkscape"
   xmlns:sodipodi="http://sodipodi.sourceforge.net/DTD/sodipodi-0.dtd"
   xmlns="http://www.w3.org/2000/svg"
   xmlns:svg="http://www.w3.org/2000/svg">
  <defs
     id="defs8" />
  <sodipodi:namedview
     id="namedview6"
     pagecolor="#505050"
     bordercolor="#ffffff"
     borderopacity="1"
     inkscape:pageshadow="0"
     inkscape:pageopacity="0"
     inkscape:pagecheckerboard="1"
     showgrid="false"
     showguides="true"
     inkscape:guide-bbox="true"
     inkscape:zoom="0.84472656"
     inkscape:cx="262.21503"
     inkscape:cy="221.37341"
     inkscape:window-width="1920"
     inkscape:window-height="1047"
     inkscape:window-x="0"
     inkscape:window-y="0"
     inkscape:window-maximized="1"
     inkscape:current-layer="svg4" />
  <!--! Font Awesome Pro 6.0.0 by @fontawesome - https://fontawesome.com License - https://fontawesome.com/license (Commercial License) Copyright 2022 Fonticons, Inc. -->
  <rect
     style="fill:#000000;stroke:#000000;stroke-width:0;stroke-linejoin:round;stroke-miterlimit:4;stroke-dasharray:none;paint-order:markers stroke fill"
     id="rect3110"
     width="56.165543"
     height="176.72871"
     x="226.571"
     y="24.151918"
     ry="21.400629" />
  <path
     id="path4221"
     style="fill:#000000;stroke:#000000;stroke-width:0;stroke-linejoin:round;stroke-miterlimit:4;stroke-dasharray:none;paint-order:markers stroke fill"
     d="m 299.3075,103.05018 v 45.64765 c 60.07595,17.01626 95.1528,69.99471 95.15264,132.43409 3.7e-4,77.09008 -62.49357,139.58403 -139.58366,139.58365 -77.09008,3.6e-4 -139.58402,-62.49358 -139.58365,-139.58365 0.0534,-62.01155 35.46787,-115.09294 95.00542,-132.43409 l 0.7395,-45.75109 c -84.36064,18.44425 -139.689903,91.67782 -139.691991,178.03121 7.12e-4,101.47687 82.263791,183.73995 183.740671,183.74068 101.47779,5.8e-4 183.7423,-82.26289 183.74301,-183.74068 -0.006,-86.89368 -54.48985,-160.03777 -139.52194,-177.92777 z"
     sodipodi:nodetypes="ccccccccccc" />
</svg>
