<?xml version="1.0" encoding="UTF-8" standalone="no"?>
<svg
   viewBox="0 0 384 512"
   version="1.1"
   id="svg4"
   sodipodi:docname="rgb.svg"
   inkscape:version="1.1.2 (0a00cf5339, 2022-02-04)"
   xmlns:inkscape="http://www.inkscape.org/namespaces/inkscape"
   xmlns:sodipodi="http://sodipodi.sourceforge.net/DTD/sodipodi-0.dtd"
   xmlns="http://www.w3.org/2000/svg"
   xmlns:svg="http://www.w3.org/2000/svg">
  <defs
     id="defs8" />
  <sodipodi:namedview
     id="namedview6"
     pagecolor="#505050"
     bordercolor="#ffffff"
     borderopacity="1"
     inkscape:pageshadow="0"
     inkscape:pageopacity="0"
     inkscape:pagecheckerboard="1"
     showgrid="false"
     inkscape:zoom="1.4042969"
     inkscape:cx="199.03199"
     inkscape:cy="91.148818"
     inkscape:window-width="1920"
     inkscape:window-height="1057"
     inkscape:window-x="1050"
     inkscape:window-y="300"
     inkscape:window-maximized="1"
     inkscape:current-layer="svg4" />
  <!--! Font Awesome Pro 6.0.0 by @fontawesome - https://fontawesome.com License - https://fontawesome.com/license (Commercial License) Copyright 2022 Fonticons, Inc. -->
  <path
     id="text3084"
     style="font-style:normal;font-variant:normal;font-weight:bold;font-stretch:normal;font-size:179.691px;line-height:1.25;font-family:sans-serif;-inkscape-font-specification:'sans-serif, Bold';font-variant-ligatures:normal;font-variant-caps:normal;font-variant-numeric:normal;font-variant-east-asian:normal;fill:#ffffff;fill-opacity:1;stroke:none;stroke-width:4.49229"
     d="M 207.43359 97.103516 C 193.05831 97.103516 180.89993 99.798723 170.95703 105.18945 C 161.01413 110.58018 153.40765 118.18666 148.13672 128.00977 C 142.98558 137.83287 140.4082 149.45417 140.4082 162.87109 C 140.4082 184.43401 145.561 200.84483 155.86328 212.10547 C 166.16556 223.3661 180.89937 228.99609 200.06641 228.99609 C 209.29054 228.99609 217.49595 228.33727 224.68359 227.01953 C 231.99103 225.7018 238.99857 223.90499 245.70703 221.62891 L 245.70703 155.14453 L 194.85547 155.14453 L 194.85547 177.78516 L 219.11328 177.78516 L 219.11328 204.55859 C 216.8372 205.03777 214.32167 205.45702 211.56641 205.81641 C 208.93094 206.17579 205.69669 206.35547 201.86328 206.35547 C 193.95688 206.35547 187.54827 204.55866 182.63672 200.96484 C 177.72516 197.25123 174.13155 192.16028 171.85547 185.69141 C 169.57938 179.22253 168.44141 171.79574 168.44141 163.41016 C 168.44141 154.5454 169.99864 146.87903 173.11328 140.41016 C 176.34772 133.82149 180.83973 128.72859 186.58984 125.13477 C 192.45975 121.54095 199.3475 119.74414 207.25391 119.74414 C 212.76443 119.74414 218.03506 120.40297 223.06641 121.7207 C 228.09775 123.03844 232.58977 124.71546 236.54297 126.75195 L 245.52734 105.00977 C 240.13661 102.61389 234.14726 100.69729 227.55859 99.259766 C 220.96992 97.822238 214.26185 97.103516 207.43359 97.103516 z M 27.5625 98.900391 L 27.5625 227.19922 L 54.697266 227.19922 L 54.697266 177.96484 L 69.251953 177.96484 L 99.798828 227.19922 L 129.98633 227.19922 L 92.251953 171.31641 C 96.444743 169.3997 100.33782 166.94407 103.93164 163.94922 C 107.64525 160.83457 110.58004 157.12118 112.73633 152.80859 C 115.01241 148.37622 116.15039 143.22342 116.15039 137.35352 C 116.15039 124.41576 111.95785 114.77291 103.57227 108.42383 C 95.30648 102.07475 82.429377 98.900391 64.939453 98.900391 L 27.5625 98.900391 z M 276.25586 98.900391 L 276.25586 227.19922 L 324.23242 227.19922 C 338.84729 227.19922 350.3488 223.90508 358.73438 217.31641 C 367.11995 210.72774 371.3125 201.62392 371.3125 190.00391 C 371.3125 183.29544 370.29431 177.90503 368.25781 173.83203 C 366.22131 169.75904 363.46621 166.64457 359.99219 164.48828 C 356.51816 162.33199 352.62508 160.83465 348.3125 159.99609 L 348.3125 159.09766 C 354.66158 158.01951 359.51296 154.96494 362.86719 149.93359 C 366.34121 144.90225 368.07813 138.73126 368.07812 131.42383 C 368.07813 119.32463 363.7059 110.87965 354.96094 106.08789 C 346.21598 101.29613 333.27703 98.900391 316.14648 98.900391 L 276.25586 98.900391 z M 54.697266 121.18164 L 62.962891 121.18164 C 71.827646 121.18164 78.296145 122.4993 82.369141 125.13477 C 86.56193 127.65044 88.658203 131.96472 88.658203 138.07422 C 88.658203 143.94412 86.681717 148.37624 82.728516 151.37109 C 78.895108 154.36594 72.486503 155.86328 63.501953 155.86328 L 54.697266 155.86328 L 54.697266 121.18164 z M 303.38867 121.18164 L 317.76367 121.18164 C 325.55028 121.18164 331.24016 122.25972 334.83398 124.41602 C 338.4278 126.57231 340.22656 130.10602 340.22656 135.01758 C 340.22656 139.80934 338.66738 143.46479 335.55273 145.98047 C 332.55788 148.49614 327.10758 149.75391 319.20117 149.75391 L 303.38867 149.75391 L 303.38867 121.18164 z M 303.38867 171.31641 L 320.2793 171.31641 C 328.90446 171.31641 334.83392 172.81374 338.06836 175.80859 C 341.42259 178.68365 343.10156 182.51683 343.10156 187.30859 C 343.10156 192.57953 341.48248 196.83197 338.24805 200.06641 C 335.01361 203.18105 329.32373 204.73828 321.17773 204.73828 L 303.38867 204.73828 L 303.38867 171.31641 z " />
</svg>
