<?xml version="1.0" encoding="UTF-8" standalone="no"?>
<svg
   viewBox="0 0 512 512"
   version="1.1"
   id="svg4"
   sodipodi:docname="skull-solid besser.svg"
   inkscape:version="1.1.2 (0a00cf5339, 2022-02-04)"
   xmlns:inkscape="http://www.inkscape.org/namespaces/inkscape"
   xmlns:sodipodi="http://sodipodi.sourceforge.net/DTD/sodipodi-0.dtd"
   xmlns="http://www.w3.org/2000/svg"
   xmlns:svg="http://www.w3.org/2000/svg">
  <defs
     id="defs8" />
  <sodipodi:namedview
     id="namedview6"
     pagecolor="#505050"
     bordercolor="#ffffff"
     borderopacity="1"
     inkscape:pageshadow="0"
     inkscape:pageopacity="0"
     inkscape:pagecheckerboard="1"
     showgrid="false"
     inkscape:zoom="2.8284271"
     inkscape:cx="233.52201"
     inkscape:cy="394.21203"
     inkscape:window-width="1920"
     inkscape:window-height="1047"
     inkscape:window-x="0"
     inkscape:window-y="0"
     inkscape:window-maximized="1"
     inkscape:current-layer="svg4" />
  <!--! Font Awesome Pro 6.0.0 by @fontawesome - https://fontawesome.com License - https://fontawesome.com/license (Commercial License) Copyright 2022 Fonticons, Inc. -->
  <path
     d="m 350.96612,282.20789 v 41.94603 c 0,17.36828 -14.09125,31.45952 -31.45953,31.45952 h -31.45952 v -31.45952 c 0,-5.76758 -4.71893,-10.48651 -10.48651,-10.48651 -5.76757,0 -10.4865,4.71893 -10.4865,10.48651 v 31.45952 h -41.94603 v -31.45952 c 0,-5.76758 -4.71893,-10.48651 -10.48651,-10.48651 -5.76758,0 -10.48651,4.71893 -10.48651,10.48651 v 31.45952 h -31.45952 c -17.36828,0 -31.45952,-14.09124 -31.45952,-31.45952 v -41.94603 c 0,-0.26216 0,-0.45879 0.007,-0.72095 C 102.88161,254.54972 78.316966,213.19356 78.316966,166.85631 78.31692,85.782493 153.42653,20.045199 246.10104,20.045199 c 92.67451,0 167.78412,65.737294 167.78412,146.811111 0,46.33725 -24.57775,87.69341 -63.50891,114.63063 0,0.26216 0.58987,0.45879 0.58987,0.72095 z M 183.182,145.88329 c -23.13586,0 -41.94603,18.81017 -41.94603,41.94603 0,23.13586 18.81017,41.94603 41.94603,41.94603 23.13585,0 41.94603,-18.81017 41.94603,-41.94603 0,-23.13586 -18.81018,-41.94603 -41.94603,-41.94603 z m 125.83809,83.89206 c 23.13585,0 41.94603,-18.81017 41.94603,-41.94603 0,-23.13586 -18.81018,-41.94603 -41.94603,-41.94603 -23.13586,0 -41.94603,18.81017 -41.94603,41.94603 0,23.13586 18.81017,41.94603 41.94603,41.94603 z"
     id="path2"
     style="stroke-width:0.655407" />
  <path
     style="fill:none;stroke:#000000;stroke-width:0.655407px;stroke-linecap:butt;stroke-linejoin:miter;stroke-opacity:1"
     d="M 91.936506,407.15299 Z"
     id="path858" />
  <path
     style="fill:#000000;fill-opacity:1;stroke:#000000;stroke-width:0.655407px;stroke-linecap:butt;stroke-linejoin:miter;stroke-opacity:1"
     d="m 58.637977,308.2534 c -5.562329,-3.91487 -5.848417,-14.12176 -2.953048,-20.44937 2.264033,-4.94789 8.143571,-6.0057 8.143571,-6.0057 0,0 8.464043,-2.16599 11.458363,1.42131 2.994319,3.58728 -7.387023,-6.66084 -6.194973,-12.24283 0.265338,-1.2425 0.06581,-2.46693 0.30905,-3.31412 0.832286,-2.89882 2.16127,-3.70401 4.400406,-5.84294 1.575573,-1.50506 7.070284,-3.53036 10.89697,-3.31074 3.34117,0.19175 6.596278,1.73777 6.596278,1.73777 1.739362,1.0765 4.199296,3.72789 5.076448,5.48552 1.880194,3.76751 1.211238,13.62753 5.725428,16.21933 23.78171,13.65417 84.84007,44.40622 143.79937,73.70177 0.70085,0.34823 15.14487,-0.39773 15.84506,-0.0499 0.76582,0.38039 -12.21225,1.85449 -11.44739,2.23427 67.59758,33.56411 131.14743,64.57253 131.14743,64.57253 0,0 10.90335,2.06202 15.46481,-2.25467 4.11543,-3.8946 7.94253,-8.07077 13.55707,-8.98692 3.30274,-0.53892 8.92358,-1.42356 12.88223,1.2689 2.07384,1.41052 4.76922,5.36636 5.79474,7.32246 0.6877,1.31175 1.4252,3.07917 1.43178,4.17785 0.0125,2.0937 -0.50339,3.86905 -0.6179,5.07788 -0.0405,0.42736 -0.82091,2.52481 -2.16985,4.44207 -1.67727,2.38393 -4.83663,4.12194 -6.51023,5.00271 -3.42892,1.80455 -6.54506,0.79048 -6.44798,2.27659 0.0937,1.43364 5.39633,2.48828 5.39633,2.48828 2.71236,2.04328 5.67788,4.6795 6.73488,7.48318 1.1896,3.1554 1.0635,6.62602 0.84014,7.47932 -0.67783,2.5899 -1.30678,5.40806 -4.19244,8.75566 -2.86581,3.3246 -8.81129,5.92452 -12.12053,6.19744 -3.51943,0.29025 -8.39526,-0.7439 -13.19386,-2.39688 -4.63696,-1.5973 -5.73153,-4.27089 -7.61964,-5.76662 -2.86589,-3.1506 -2.42411,-4.55816 -4.18949,-7.95688 -1.18783,-2.2868 -1.20985,-2.91358 -4.88142,-4.39783 -9.15905,-3.7026 -21.36161,-7.57795 -26.61664,-9.80598 -1.44976,-0.61469 -6.93751,-2.75299 -6.93751,-2.75299 -3.16097,-2.12173 -147.24371,-65.9321 -228.83988,-108.52848 -13.78823,-7.19799 -20.166313,-12.94143 -33.117172,-19.69907 -4.996365,-2.60705 -10.46243,0.59265 -14.616518,0.47447 -7.257112,-0.20645 -12.833881,-4.05736 -12.833881,-4.05736 z"
     id="path1055"
     sodipodi:nodetypes="cscssssssssssscssssssssssssssscssssssscc" />
  <path
     style="fill:#000000;fill-opacity:1;stroke:#000000;stroke-width:0.676897px;stroke-linecap:butt;stroke-linejoin:miter;stroke-opacity:1"
     d="m 406.00467,271.07186 c 6.59522,-1.45657 14.12595,5.88133 16.70563,12.83724 2.01718,5.43918 -1.21954,10.82835 -1.21954,10.82835 0,0 -4.19721,8.23463 -8.81119,7.92237 -4.61399,-0.31227 9.80935,-0.85146 13.01106,4.21783 0.71267,1.12837 1.72838,1.87922 2.17194,2.69741 1.51774,2.79959 1.193,4.43713 1.20816,7.77574 0.0107,2.3492 -2.26906,8.15371 -5.02837,10.98847 -2.40922,2.47507 -5.73332,3.87941 -5.73332,3.87941 -1.95619,0.5649 -5.5342,0.52744 -7.39381,-0.0877 -3.98611,-1.31847 -8.0365,-6.79683 -12.96822,-5.18105 -56.4809,18.50495 -286.0862,119.51749 -286.0862,119.51749 0,0 -9.94279,3.46121 -11.74365,8.71403 -1.973495,5.75637 -4.42031,17.16716 -4.42031,17.16716 -1.85792,2.98631 -9.247442,6.21393 -14.039992,6.13437 -2.491594,-0.0414 -6.517964,-0.91789 -9.021366,-2.75185 -2.996649,-2.19531 -5.286958,-6.17648 -5.662049,-7.89639 -0.434291,-1.99137 -0.643318,-5.63763 0.03309,-8.11453 0.860236,-3.15004 3.247743,-5.49429 3.077361,-7.11772 -0.153928,-1.46664 -6.500403,1.1281 -6.500403,1.1281 -3.266228,0.60227 -6.647267,-0.16587 -9.306634,-1.52601 -3.07313,-1.57177 -4.875506,-3.95546 -4.875506,-3.95546 -0.06579,-0.39991 -2.565349,-3.91734 -3.253853,-8.24343 -0.745924,-4.68688 0.436454,-9.77233 2.719123,-12.54841 2.21403,-2.69261 6.008881,-5.70125 9.836531,-6.06776 4.60223,-0.44069 7.774945,0.21242 9.962883,1.01012 3.506038,1.27827 3.020495,1.2213 7.296421,1.37919 2.637255,0.0974 5.127593,0.7276 8.466125,-0.4161 9.944477,-3.40674 20.587469,-8.9202 25.761349,-11.38579 1.42739,-0.68021 3.47305,-1.66243 3.47305,-1.66243 2.41577,-1.09519 70.66508,-23.89874 140.1675,-51.86026 0.3664,-0.14741 -2.95176,-0.23144 -2.58529,-0.37913 0.33444,-0.13479 4.58115,-1.027 4.91563,-1.16202 0.16854,-0.068 0.10945,0.55769 0.278,0.48959 53.19061,-21.48931 106.64191,-45.87659 131.43325,-65.75019 4.34734,-3.48498 3.58264,-10.36748 6.49162,-13.53383 5.08192,-5.53158 11.64098,-7.04685 11.64098,-7.04685 z"
     id="path1055-3"
     sodipodi:nodetypes="cscsssssssscsssssssssssssssssssssssscc" />
</svg>
