<?xml version="1.0" encoding="UTF-8" standalone="no"?>
<svg
   viewBox="0 0 512 512"
   version="1.1"
   id="svg4"
   sodipodi:docname="skull-solid.svg"
   inkscape:version="1.1.2 (0a00cf5339, 2022-02-04)"
   xmlns:inkscape="http://www.inkscape.org/namespaces/inkscape"
   xmlns:sodipodi="http://sodipodi.sourceforge.net/DTD/sodipodi-0.dtd"
   xmlns="http://www.w3.org/2000/svg"
   xmlns:svg="http://www.w3.org/2000/svg">
  <defs
     id="defs8" />
  <sodipodi:namedview
     id="namedview6"
     pagecolor="#505050"
     bordercolor="#ffffff"
     borderopacity="1"
     inkscape:pageshadow="0"
     inkscape:pageopacity="0"
     inkscape:pagecheckerboard="1"
     showgrid="false"
     inkscape:zoom="0.5973119"
     inkscape:cx="-138.1188"
     inkscape:cy="460.39598"
     inkscape:window-width="1920"
     inkscape:window-height="1047"
     inkscape:window-x="0"
     inkscape:window-y="0"
     inkscape:window-maximized="1"
     inkscape:current-layer="svg4" />
  <!--! Font Awesome Pro 6.0.0 by @fontawesome - https://fontawesome.com License - https://fontawesome.com/license (Commercial License) Copyright 2022 Fonticons, Inc. -->
  <path
     d="m 350.96612,282.20789 v 41.94603 c 0,17.36828 -14.09125,31.45952 -31.45953,31.45952 h -31.45952 v -31.45952 c 0,-5.76758 -4.71893,-10.48651 -10.48651,-10.48651 -5.76757,0 -10.4865,4.71893 -10.4865,10.48651 v 31.45952 h -41.94603 v -31.45952 c 0,-5.76758 -4.71893,-10.48651 -10.48651,-10.48651 -5.76758,0 -10.48651,4.71893 -10.48651,10.48651 v 31.45952 h -31.45952 c -17.36828,0 -31.45952,-14.09124 -31.45952,-31.45952 v -41.94603 c 0,-0.26216 0,-0.45879 0.007,-0.72095 C 102.88161,254.54972 78.316966,213.19356 78.316966,166.85631 78.31692,85.782493 153.42653,20.045199 246.10104,20.045199 c 92.67451,0 167.78412,65.737294 167.78412,146.811111 0,46.33725 -24.57775,87.69341 -63.50891,114.63063 0,0.26216 0.58987,0.45879 0.58987,0.72095 z M 183.182,145.88329 c -23.13586,0 -41.94603,18.81017 -41.94603,41.94603 0,23.13586 18.81017,41.94603 41.94603,41.94603 23.13585,0 41.94603,-18.81017 41.94603,-41.94603 0,-23.13586 -18.81018,-41.94603 -41.94603,-41.94603 z m 125.83809,83.89206 c 23.13585,0 41.94603,-18.81017 41.94603,-41.94603 0,-23.13586 -18.81018,-41.94603 -41.94603,-41.94603 -23.13586,0 -41.94603,18.81017 -41.94603,41.94603 0,23.13586 18.81017,41.94603 41.94603,41.94603 z"
     id="path2"
     style="stroke-width:0.655407" />
  <path
     style="fill:none;stroke:#000000;stroke-width:0.655407px;stroke-linecap:butt;stroke-linejoin:miter;stroke-opacity:1"
     d="M 91.936506,407.15299 Z"
     id="path858" />
  <path
     style="fill:#000000;fill-opacity:1;stroke:#000000;stroke-width:0.655407px;stroke-linecap:butt;stroke-linejoin:miter;stroke-opacity:1"
     d="m 60.00991,318.28949 c -5.929452,-3.33277 -7.24547,-13.4585 -5.00432,-20.0463 1.752466,-5.15134 7.495019,-6.79786 7.495019,-6.79786 0,0 8.201849,-3.01018 11.543334,0.25618 3.341484,3.26635 -8.022282,-5.88029 -7.400388,-11.55417 0.138427,-1.26295 -0.183807,-2.46095 -0.02742,-3.32838 0.535103,-2.96809 1.775921,-3.90345 3.78746,-6.25769 1.415423,-1.65657 6.677355,-4.22674 10.506646,-4.39492 3.343445,-0.14685 6.738115,1.06233 6.738115,1.06233 1.839238,0.89523 4.554501,3.28447 5.60477,4.94447 2.251272,3.55823 2.030921,10.07982 6.783904,12.20221 54.43401,24.30681 292.65899,114.86779 292.65899,114.86779 0,0 12.49876,1.19755 15.15782,-3.80583 2.65906,-5.0034 6.67174,-11.16619 12.16497,-12.64499 3.23137,-0.8699 9.51904,-0.68624 13.72949,1.59242 2.20576,1.19374 4.90571,5.18288 6.05231,7.07057 1.9658,3.23638 1.28577,7.23328 1.15549,9.1216 -0.15567,2.25648 -4.05957,8.02309 -6.89688,9.90507 -3.22903,2.1418 -8.66728,1.63034 -8.42052,3.09903 0.23805,1.41684 8.25604,1.03567 8.25604,1.03567 2.90495,1.75874 6.56519,5.0477 7.90009,7.73022 1.50236,3.01904 2.38907,7.26757 1.93968,8.02653 -0.20068,0.33893 -1.25167,5.42377 -3.78429,9.04583 -2.5152,3.59717 -8.80413,6.25034 -12.12434,6.20793 -3.41542,-0.0437 -8.59013,-0.26735 -12.25274,-2.18662 -4.35285,-2.28096 -8.33844,-5.91441 -8.33844,-5.91441 0.2132,-0.36643 -2.12805,-2.63368 -4.93479,-5.62165 -1.76429,-1.87821 -1.66421,-4.17194 -5.16072,-6.17711 -9.04543,-5.18735 -20.21419,-8.32263 -25.66746,-10.00824 -1.50446,-0.46504 -3.54746,-1.17462 -3.54746,-1.17462 -3.94876,-2.10587 -211.34108,-76.52373 -281.300505,-99.38019 -5.356983,-1.75018 -9.290904,5.56268 -13.435671,5.86487 -7.240828,0.52793 -13.178182,-2.73974 -13.178182,-2.73974 z"
     id="path1055"
     sodipodi:nodetypes="cscsssssssscssssssssssssssssssssc" />
  <path
     style="fill:#000000;fill-opacity:1;stroke:#000000;stroke-width:0.676897px;stroke-linecap:butt;stroke-linejoin:miter;stroke-opacity:1"
     d="m 424.79625,269.59209 c 6.59522,-1.45657 14.12595,5.88133 16.70563,12.83724 2.01718,5.43918 -1.21954,10.82835 -1.21954,10.82835 0,0 -4.19721,8.23463 -8.81119,7.92237 -4.61399,-0.31227 9.80935,-0.85146 13.01106,4.21783 0.71267,1.12837 1.72838,1.87922 2.17194,2.69741 1.51774,2.79959 1.193,4.43713 1.20816,7.77574 0.0107,2.3492 -2.26906,8.15371 -5.02837,10.98847 -2.40922,2.47507 -5.73332,3.87941 -5.73332,3.87941 -1.95619,0.5649 -5.5342,0.52744 -7.39381,-0.0877 -3.98611,-1.31847 -8.0365,-6.79683 -12.96822,-5.18105 -56.4809,18.50495 -294.20486,111.67472 -294.20486,111.67472 0,0 -9.37159,8.55132 -8.12905,14.50836 1.24255,5.95706 1.47845,13.27681 -1.67994,18.35346 -1.85792,2.98631 -7.48375,7.07607 -12.2763,6.99651 -2.491594,-0.0414 -6.517964,-0.91789 -9.021366,-2.75185 -2.996649,-2.19531 -5.286958,-6.17648 -5.662049,-7.89639 -0.434291,-1.99137 -0.643318,-5.63763 0.03309,-8.11453 0.860236,-3.15004 4.57625,-4.58047 4.405868,-6.2039 -0.153928,-1.46664 -7.82891,0.21428 -7.82891,0.21428 -3.266228,0.60227 -6.647267,-0.16587 -9.306634,-1.52601 -3.07313,-1.57177 -4.875506,-3.95546 -4.875506,-3.95546 -0.06579,-0.39991 -2.565349,-3.91734 -3.253853,-8.24343 -0.745924,-4.68688 0.436454,-9.77233 2.719123,-12.54841 2.21403,-2.69261 6.138285,-4.66006 9.965935,-5.02657 4.60223,-0.44069 9.018953,1.03874 9.546115,1.11554 0.879257,0.12808 3.394516,1.12867 7.670442,1.28656 2.637255,0.0974 5.522524,0.61258 8.586574,-1.07912 9.20241,-5.08076 19.94284,-10.33844 25.11672,-12.80403 1.42739,-0.68021 3.4162,-1.54017 3.4162,-1.54017 4.31869,-1.06276 207.75161,-86.4139 274.9231,-117.03924 5.14351,-2.34506 3.363,-11.08523 6.27198,-14.25158 5.08192,-5.53158 11.64098,-7.04685 11.64098,-7.04685 z"
     id="path1055-3"
     sodipodi:nodetypes="cscsssssssscssssssssssssssssssssc" />
</svg>
