<?xml version="1.0" encoding="UTF-8" standalone="no"?>
<svg
   viewBox="0 0 640 512"
   version="1.1"
   id="svg4"
   sodipodi:docname="volume-high-solid.svg"
   inkscape:version="1.1.2 (0a00cf5339, 2022-02-04)"
   xmlns:inkscape="http://www.inkscape.org/namespaces/inkscape"
   xmlns:sodipodi="http://sodipodi.sourceforge.net/DTD/sodipodi-0.dtd"
   xmlns="http://www.w3.org/2000/svg"
   xmlns:svg="http://www.w3.org/2000/svg">
  <defs
     id="defs8" />
  <sodipodi:namedview
     id="namedview6"
     pagecolor="#505050"
     bordercolor="#ffffff"
     borderopacity="1"
     inkscape:pageshadow="0"
     inkscape:pageopacity="0"
     inkscape:pagecheckerboard="1"
     showgrid="false"
     inkscape:zoom="0.29865594"
     inkscape:cx="-329.81095"
     inkscape:cy="-224.33841"
     inkscape:window-width="1920"
     inkscape:window-height="1047"
     inkscape:window-x="0"
     inkscape:window-y="0"
     inkscape:window-maximized="1"
     inkscape:current-layer="svg4" />
  <!--! Font Awesome Pro 6.0.0 by @fontawesome - https://fontawesome.com License - https://fontawesome.com/license (Commercial License) Copyright 2022 Fonticons, Inc. -->
  <path
     d="m 369.11408,148.16345 c -5.39331,-4.37235 -13.33111,-3.6027 -17.70661,1.78482 -4.41013,5.37232 -3.62317,13.29964 1.77066,17.70137 5.91532,4.85712 9.32548,11.88729 9.32548,18.86501 0,7.43415 -3.41016,14.47483 -9.34384,19.32251 -5.3933,4.40487 -6.18027,12.32904 -1.77066,17.70136 2.47577,3.04606 6.09631,4.61788 9.73732,4.61788 2.80367,0 5.63988,-0.93334 7.96928,-2.83254 11.82277,-9.2195 18.59063,-23.33232 18.59063,-38.80921 0,-15.47688 -6.76786,-28.69782 -18.57226,-38.3512 z M 400.85481,109.445 c -5.36182,-4.37235 -13.29438,-3.61897 -17.72234,1.7523 -4.41013,5.37232 -3.62317,13.29963 1.75439,17.70136 17.8042,14.07085 27.98221,35.68603 27.98221,57.61599 0,21.92997 -10.199,43.07297 -27.96857,58.07767 -5.37756,4.40489 -6.16452,12.32905 -1.7544,17.70137 2.49204,3.0298 6.09632,4.60162 9.73732,4.60162 2.81995,0 5.63989,-0.93333 7.98503,-2.84932 23.64763,-18.87656 37.18336,-47.15467 37.18336,-77.53134 0,-30.37666 -13.53573,-57.76289 -37.197,-77.06965 z m 32.16045,-39.243093 c -5.36182,-4.372352 -13.29439,-3.602704 -17.72235,1.752298 -4.41013,5.372317 -3.62316,13.299631 1.7544,17.701363 29.34628,24.039022 46.18722,59.504702 46.18722,96.859082 0,37.35439 -16.8357,73.29225 -46.19981,97.32077 -5.37757,4.40488 -6.16453,12.32904 -1.7544,17.70136 2.4679,3.49411 6.08792,5.06802 9.76041,5.06802 2.81994,0 5.63988,-0.93333 7.98502,-2.84932 35.19287,-28.83895 55.39152,-71.38727 55.39152,-117.24083 0,-45.85355 -20.19865,-87.48901 -55.40201,-116.312743 z m -122.34611,0.828932 c -6.03336,-2.718161 -13.12125,-1.613794 -18.06337,2.775346 l -70.81069,62.867645 h -43.96485 c -13.90821,0 -25.18273,11.26927 -25.18273,25.16174 v 50.3235 c 0,13.89247 11.27452,25.16174 25.18273,25.16174 h 43.98584 l 70.77397,62.85191 c 3.12686,2.75961 7.11412,4.2286 11.15385,4.2286 2.32835,0 4.70025,-0.48865 6.90426,-1.48736 6.05435,-2.70976 9.88423,-8.69067 9.88423,-15.24867 V 86.318856 c 0,-6.594728 -3.82988,-12.58612 -9.86324,-15.288017 z"
     id="path2"
     style="stroke-width:0.524641" />
  <rect
     style="fill:#000000;stroke:#000000;stroke-width:9.15466;stroke-linejoin:round;paint-order:markers stroke fill"
     id="rect847"
     width="136.18141"
     height="25.544094"
     x="242.29887"
     y="393.39905"
     transform="matrix(0.99992332,-0.01238348,0,1,0,0)" />
  <rect
     style="fill:#000000;stroke:#000000;stroke-width:9.15466;stroke-linejoin:round;paint-order:markers stroke fill"
     id="rect847-3"
     width="136.18141"
     height="25.544094"
     x="336.26062"
     y="-318.40887"
     transform="matrix(0.01238348,0.99992332,-1,0,0,0)" />
</svg>
